<svg width="178" height="33" viewBox="0 0 178 33" fill="none" xmlns="http://www.w3.org/2000/svg">
<g clip-path="url(#clip0_9_33)">
<path d="M14.9645 5.81535C12.5674 5.81535 10.7571 6.36469 9.53353 7.46337C8.33497 8.53708 7.73569 10.1102 7.73569 12.1827V15.1791H19.7213V18.4002H7.73569V29H3.99019V12.1452C3.99019 9.12388 4.93905 6.76421 6.83677 5.06625C8.75946 3.34332 11.4312 2.48186 14.8521 2.48186C16.3503 2.48186 17.7487 2.65665 19.0471 3.00623C20.3455 3.33084 21.4692 3.81775 22.418 4.46697L21.182 7.57574C19.509 6.40215 17.4365 5.81535 14.9645 5.81535ZM34.897 29.2247C32.9244 29.2247 31.1515 28.7878 29.5784 27.9138C28.0053 27.0399 26.7693 25.8413 25.8703 24.3181C24.9964 22.77 24.5594 21.0221 24.5594 19.0744C24.5594 17.1268 24.9964 15.3913 25.8703 13.8682C26.7693 12.32 28.0053 11.1215 29.5784 10.2725C31.1515 9.39855 32.9244 8.96157 34.897 8.96157C36.8696 8.96157 38.63 9.39855 40.1782 10.2725C41.7513 11.1215 42.9748 12.32 43.8487 13.8682C44.7477 15.3913 45.1971 17.1268 45.1971 19.0744C45.1971 21.0221 44.7477 22.77 43.8487 24.3181C42.9748 25.8413 41.7513 27.0399 40.1782 27.9138C38.63 28.7878 36.8696 29.2247 34.897 29.2247ZM34.897 26.0785C36.1705 26.0785 37.3066 25.7914 38.3054 25.217C39.3292 24.6178 40.1282 23.7938 40.7025 22.745C41.2768 21.6713 41.564 20.4478 41.564 19.0744C41.564 17.7011 41.2768 16.49 40.7025 15.4413C40.1282 14.3676 39.3292 13.5436 38.3054 12.9693C37.3066 12.3949 36.1705 12.1078 34.897 12.1078C33.6235 12.1078 32.4749 12.3949 31.4511 12.9693C30.4523 13.5436 29.6533 14.3676 29.054 15.4413C28.4797 16.49 28.1926 17.7011 28.1926 19.0744C28.1926 20.4478 28.4797 21.6713 29.054 22.745C29.6533 23.7938 30.4523 24.6178 31.4511 25.217C32.4749 25.7914 33.6235 26.0785 34.897 26.0785ZM54.7394 12.4823C55.3636 11.3337 56.2875 10.4598 57.511 9.86049C58.7346 9.26121 60.2203 8.96157 61.9682 8.96157V12.4449C61.7684 12.4199 61.4938 12.4074 61.1442 12.4074C59.1965 12.4074 57.6609 12.9942 56.5372 14.1678C55.4385 15.3164 54.8892 16.9645 54.8892 19.1119V29H51.2935V9.14885H54.7394V12.4823ZM92.3562 8.96157C94.8532 8.96157 96.8258 9.6857 98.2741 11.134C99.7473 12.5822 100.484 14.7296 100.484 17.5762V29H96.8883V17.9882C96.8883 16.0655 96.4388 14.6173 95.5399 13.6434C94.6659 12.6696 93.4049 12.1827 91.7569 12.1827C89.9341 12.1827 88.4858 12.757 87.4121 13.9056C86.3384 15.0293 85.8016 16.6523 85.8016 18.7748V29H82.2059V17.9882C82.2059 16.0655 81.7564 14.6173 80.8575 13.6434C79.9836 12.6696 78.7226 12.1827 77.0746 12.1827C75.2517 12.1827 73.8035 12.757 72.7298 13.9056C71.6561 15.0293 71.1192 16.6523 71.1192 18.7748V29H67.5235V9.14885H70.9694V12.1078C71.6935 11.084 72.6424 10.31 73.816 9.78558C74.9896 9.23624 76.3255 8.96157 77.8237 8.96157C79.3718 8.96157 80.7451 9.2737 81.9437 9.89795C83.1423 10.5222 84.0662 11.4336 84.7154 12.6322C85.4645 11.4835 86.5007 10.5846 87.8241 9.9354C89.1725 9.28618 90.6832 8.96157 92.3562 8.96157ZM118.823 8.96157C121.345 8.96157 123.343 9.69819 124.816 11.1714C126.314 12.6197 127.064 14.7546 127.064 17.5762V29H123.468V17.9882C123.468 16.0655 123.006 14.6173 122.082 13.6434C121.158 12.6696 119.835 12.1827 118.112 12.1827C116.164 12.1827 114.628 12.757 113.505 13.9056C112.381 15.0293 111.819 16.6523 111.819 18.7748V29H108.224V9.14885H111.67V12.1452C112.394 11.1215 113.367 10.3349 114.591 9.78558C115.84 9.23624 117.25 8.96157 118.823 8.96157ZM143.903 26.0785C146.275 26.0785 148.185 25.2795 149.634 23.6814L151.581 26.0036C150.707 27.0523 149.596 27.8514 148.248 28.4007C146.924 28.9501 145.439 29.2247 143.791 29.2247C141.693 29.2247 139.833 28.8002 138.21 27.9513C136.587 27.0773 135.326 25.8663 134.427 24.3181C133.553 22.77 133.116 21.0221 133.116 19.0744C133.116 17.1517 133.541 15.4163 134.389 13.8682C135.263 12.32 136.45 11.1215 137.948 10.2725C139.471 9.39855 141.181 8.96157 143.079 8.96157C144.877 8.96157 146.512 9.37358 147.986 10.1976C149.459 10.9966 150.632 12.1328 151.506 13.606C152.38 15.0792 152.83 16.7772 152.855 18.6999L137.086 21.7712C137.586 23.1445 138.422 24.2058 139.596 24.9549C140.794 25.704 142.23 26.0785 143.903 26.0785ZM143.079 11.9954C141.831 11.9954 140.707 12.2826 139.708 12.8569C138.734 13.4312 137.973 14.2427 137.423 15.2915C136.874 16.3152 136.599 17.5138 136.599 18.8871V19.2617L149.297 16.8646C148.972 15.4163 148.248 14.2427 147.124 13.3438C146.001 12.4449 144.652 11.9954 143.079 11.9954ZM171.12 29L165.389 21.3966L159.584 29H155.576L163.404 18.8497L155.951 9.14885H159.958L165.427 16.3028L170.858 9.14885H174.791L167.3 18.8497L175.203 29H171.12Z" fill="black"/>
</g>
<defs>
<clipPath id="clip0_9_33">
<rect width="178" height="33" fill="white"/>
</clipPath>
</defs>
</svg>
