<svg width="203" height="46" viewBox="0 0 203 46" fill="none" xmlns="http://www.w3.org/2000/svg">
<g clip-path="url(#clip0_9_34)">
<path d="M17.0824 16.4674C14.6213 16.4674 12.7626 17.0314 11.5064 18.1594C10.2758 19.2618 9.66056 20.8769 9.66056 23.0047V26.0811H21.9662V29.3883H9.66056V40.271H5.81506V22.9663C5.81506 19.8642 6.78925 17.4416 8.73764 15.6983C10.7117 13.9293 13.4548 13.0449 16.967 13.0449C18.5052 13.0449 19.9409 13.2243 21.274 13.5833C22.6071 13.9165 23.7607 14.4164 24.7349 15.083L23.4659 18.2748C21.7482 17.0698 19.6204 16.4674 17.0824 16.4674ZM37.547 40.5018C35.5217 40.5018 33.7015 40.0531 32.0864 39.1558C30.4713 38.2585 29.2023 37.028 28.2794 35.4642C27.3821 33.8747 26.9335 32.0801 26.9335 30.0805C26.9335 28.0808 27.3821 26.299 28.2794 24.7352C29.2023 23.1457 30.4713 21.9152 32.0864 21.0435C33.7015 20.1462 35.5217 19.6976 37.547 19.6976C39.5723 19.6976 41.3797 20.1462 42.9692 21.0435C44.5843 21.9152 45.8405 23.1457 46.7378 24.7352C47.6607 26.299 48.1222 28.0808 48.1222 30.0805C48.1222 32.0801 47.6607 33.8747 46.7378 35.4642C45.8405 37.028 44.5843 38.2585 42.9692 39.1558C41.3797 40.0531 39.5723 40.5018 37.547 40.5018ZM37.547 37.2715C38.8545 37.2715 40.021 36.9767 41.0464 36.3871C42.0976 35.7718 42.9179 34.9258 43.5076 33.849C44.0972 32.7467 44.392 31.4905 44.392 30.0805C44.392 28.6704 44.0972 27.4271 43.5076 26.3503C42.9179 25.2479 42.0976 24.4019 41.0464 23.8123C40.021 23.2226 38.8545 22.9278 37.547 22.9278C36.2396 22.9278 35.0603 23.2226 34.0092 23.8123C32.9837 24.4019 32.1633 25.2479 31.5481 26.3503C30.9584 27.4271 30.6636 28.6704 30.6636 30.0805C30.6636 31.4905 30.9584 32.7467 31.5481 33.849C32.1633 34.9258 32.9837 35.7718 34.0092 36.3871C35.0603 36.9767 36.2396 37.2715 37.547 37.2715ZM57.9192 23.3124C58.5601 22.1331 59.5087 21.2358 60.7649 20.6205C62.021 20.0052 63.5464 19.6976 65.341 19.6976V23.2739C65.1359 23.2483 64.8539 23.2355 64.495 23.2355C62.4953 23.2355 60.9187 23.8379 59.765 25.0428C58.637 26.2221 58.073 27.9142 58.073 30.1189V40.271H54.3813V19.8899H57.9192V23.3124ZM96.5403 19.6976C99.104 19.6976 101.129 20.4411 102.616 21.928C104.129 23.4149 104.885 25.6197 104.885 28.5423V40.271H101.193V28.9653C101.193 26.9912 100.732 25.5043 99.809 24.5045C98.9117 23.5046 97.6171 23.0047 95.925 23.0047C94.0536 23.0047 92.5666 23.5944 91.4643 24.7737C90.3619 25.9273 89.8107 27.5937 89.8107 29.7728V40.271H86.119V28.9653C86.119 26.9912 85.6576 25.5043 84.7346 24.5045C83.8374 23.5046 82.5427 23.0047 80.8507 23.0047C78.9792 23.0047 77.4923 23.5944 76.3899 24.7737C75.2875 25.9273 74.7363 27.5937 74.7363 29.7728V40.271H71.0447V19.8899H74.5825V22.9278C75.326 21.8767 76.3002 21.082 77.5051 20.5436C78.71 19.9796 80.0816 19.6976 81.6198 19.6976C83.2093 19.6976 84.6193 20.0181 85.8498 20.659C87.0804 21.2999 88.0289 22.2356 88.6955 23.4662C89.4646 22.2869 90.5285 21.364 91.8873 20.6974C93.2716 20.0309 94.8227 19.6976 96.5403 19.6976ZM123.714 19.6976C126.303 19.6976 128.354 20.4539 129.867 21.9664C131.405 23.4534 132.174 25.6453 132.174 28.5423V40.271H128.483V28.9653C128.483 26.9912 128.008 25.5043 127.06 24.5045C126.111 23.5046 124.752 23.0047 122.984 23.0047C120.984 23.0047 119.407 23.5944 118.254 24.7737C117.1 25.9273 116.523 27.5937 116.523 29.7728V40.271H112.831V19.8899H116.369V22.9663C117.113 21.9152 118.113 21.1076 119.369 20.5436C120.651 19.9796 122.099 19.6976 123.714 19.6976ZM149.463 37.2715C151.899 37.2715 153.86 36.4512 155.347 34.8104L157.347 37.1946C156.449 38.2714 155.309 39.0917 153.924 39.6557C152.565 40.2198 151.04 40.5018 149.348 40.5018C147.195 40.5018 145.285 40.0659 143.618 39.1943C141.952 38.297 140.657 37.0536 139.734 35.4642C138.837 33.8747 138.388 32.0801 138.388 30.0805C138.388 28.1064 138.824 26.3247 139.696 24.7352C140.593 23.1457 141.811 21.9152 143.349 21.0435C144.913 20.1462 146.669 19.6976 148.617 19.6976C150.463 19.6976 152.142 20.1206 153.655 20.9666C155.168 21.787 156.373 22.9535 157.27 24.466C158.167 25.9786 158.629 27.7219 158.654 29.6959L142.465 32.8492C142.977 34.2592 143.836 35.3488 145.041 36.1179C146.272 36.887 147.746 37.2715 149.463 37.2715ZM148.617 22.8125C147.336 22.8125 146.182 23.1073 145.156 23.6969C144.157 24.2866 143.375 25.1198 142.811 26.1965C142.247 27.2476 141.965 28.4782 141.965 29.8882V30.2727L155.001 27.8116C154.668 26.3247 153.924 25.1198 152.771 24.1968C151.617 23.2739 150.233 22.8125 148.617 22.8125ZM177.407 40.271L171.523 32.4647L165.563 40.271H161.448L169.485 29.8497L161.833 19.8899H165.947L171.562 27.2348L177.138 19.8899H181.176L173.485 29.8497L181.599 40.271H177.407Z" fill="black"/>
<path fill-rule="evenodd" clip-rule="evenodd" d="M201.937 12.2601C201.978 11.9134 202 11.5609 202 11.2036C202 11.2024 202 11.2012 202 11.2C202 11.1988 202 11.1976 202 11.1964C202 10.8181 201.975 10.445 201.929 10.0787H195.019L199.88 5.44942C199.401 4.8804 198.852 4.36676 198.247 3.9202L193.483 8.45558V2.06397C193.108 2.02173 192.725 2 192.338 2C191.95 2 191.568 2.02173 191.192 2.06397V8.53624L186.381 3.95551C185.778 4.40558 185.233 4.92241 184.757 5.49432L189.572 10.0787H182.747C182.699 10.4462 182.675 10.8204 182.675 11.2C182.675 11.5585 182.697 11.9122 182.739 12.2601H189.487L184.692 16.8261C184.808 16.9682 184.927 17.107 185.052 17.2424L185.992 18.1376C186.092 18.221 186.194 18.3023 186.298 18.3817L191.192 13.7218V20.336C191.566 20.3781 191.947 20.3998 192.333 20.4C192.334 20.4 192.336 20.4 192.338 20.4C192.339 20.4 192.341 20.4 192.343 20.4C192.729 20.3998 193.109 20.3781 193.483 20.336V13.8025L198.318 18.4057L199.937 16.8632L195.103 12.2601H201.937Z" fill="black"/>
</g>
<defs>
<clipPath id="clip0_9_34">
<rect width="203" height="46" fill="white"/>
</clipPath>
</defs>
</svg>
